<svg xmlns="http://www.w3.org/2000/svg" viewBox="0 0 200 200"><defs><style>.cls-1{fill:#1a1e1a;}.cls-2{fill:#8b8b8b;}.cls-3{fill:#fff;}</style></defs><title>ButtonLeft</title><g id="Export"><g id="Left"><circle class="cls-1" cx="100" cy="100" r="100"/><g id="DPad"><path class="cls-2" d="M177.12,80.73v38.54a3.59,3.59,0,0,1-3.57,3.57H124.33v50.72a3.58,3.58,0,0,1-3.57,3.57H82.21a3.58,3.58,0,0,1-3.57-3.57V122.84H26.46a3.57,3.57,0,0,1-3.57-3.57V80.73a3.56,3.56,0,0,1,3.57-3.57H78.64V26.45a3.57,3.57,0,0,1,3.57-3.57h38.55a3.57,3.57,0,0,1,3.57,3.57V77.16h49.22A3.57,3.57,0,0,1,177.12,80.73Z"/><path class="cls-3" d="M78.65,122.93H26.45a3.57,3.57,0,0,1-3.57-3.57V80.8a3.57,3.57,0,0,1,3.57-3.57h52.2l22.84,22.84Z"/></g></g></g></svg>